#!OML:ASF F:\VICON\USERDATA\INSTALL\rory3\rory3.ASF
:FULLY-SPECIFIED
:DEGREES
168
root 1.06076 16.8825 -0.41222 312.979 73.7314 -217.05
lowerback -0.682231 7.8984 13.0226
upperback -7.84901 10.0254 10.2998
thorax -7.74199 3.86334 3.50797
lowerneck -31.9449 -9.37394 -27.7911
upperneck -4.20122 -2.06309 13.9909
head 3.75539 0.606804 8.8803
rclavicle -3.10104e-014 9.70069e-014
rhumerus 73.9613 -23.2743 4.59386
rradius 39.4336
rwrist 17.646
rhand -34.7535 103.591
rfingers 7.12502
rthumb -7.90684 133.423
lclavicle -3.10104e-014 9.70069e-014
lhumerus 46.4733 29.781 21.7233
lradius 48.054
lwrist 15.7328
lhand -49.6684 115.633
lfingers 7.12502
lthumb -22.2708 -86.8959
rfemur -82.7045 -31.0164 -6.07547
rtibia 70.8079
rfoot -13.4816 -26.1889
rtoes 4.95183
lfemur -32.352 24.9546 6.96857
ltibia 60.2711
lfoot -18.9857 15.125
ltoes -3.77452
169
root 1.11675 16.8553 -0.550677 314.561 75.2466 -216.115
lowerback -1.61343 7.74255 12.3013
upperback -8.00112 9.67986 9.84141
thorax -7.3941 3.76051 3.48258
lowerneck -32.15 -9.90083 -29.0265
upperneck -4.0178 -2.30811 15.2916
head 3.94478 0.586791 9.53873
rclavicle 9.85972e-014 -1.90833e-014
rhumerus 73.8392 -23.2468 5.11094
rradius 38.8313
rwrist 17.1359
rhand -33.2828 102.843
rfingers 7.12502
rthumb -6.48722 132.723
lclavicle 9.85972e-014 -1.90833e-014
lhumerus 46.3487 29.2417 21.5208
lradius 47.7882
lwrist 15.7228
lhand -49.0511 114.512
lfingers 7.12502
lthumb -21.6781 -85.7053
rfemur -80.3108 -29.8412 -6.24169
rtibia 70.3901
rfoot -13.9242 -26.8335
rtoes 7.0257
lfemur -34.5656 26.5906 6.34492
ltibia 58.354
lfoot -19.1846 15.1233
ltoes -4.78206
170
root 1.17017 16.8414 -0.658848 316.512 76.8976 -214.703
lowerback -2.42062 5.81397 11.1094
upperback -7.85185 9.67011 9.62512
thorax -7.12455 4.92724 3.74647
lowerneck -32.3534 -10.2872 -29.8953
upperneck -3.79768 -2.50827 16.4177
head 4.13859 0.56857 10.0901
rclavicle -1.03368e-013 3.02153e-014
rhumerus 73.7724 -23.2052 5.3474
rradius 38.277
rwrist 16.8859
rhand -32.9813 102.399
rfingers 7.12502
rthumb -6.19621 132.288
lclavicle -1.03368e-013 3.02153e-014
lhumerus 46.4109 28.7459 21.4207
lradius 46.9259
lwrist 15.0038
lhand -47.9101 114.317
lfingers 7.12502
lthumb -20.5821 -85.3884
rfemur -77.9385 -28.5873 -6.68867
rtibia 70.0085
rfoot -15.5767 -27.1859
rtoes 7.19873
lfemur -36.797 27.8522 5.84721
ltibia 56.6283
lfoot -19.4842 14.7758
ltoes -5.30142
171
root 1.20429 16.8647 -0.760442 317.149 79.8097 -215.339
lowerback -4.16071 5.3561 9.1844
upperback -8.3456 8.62181 8.83158
thorax -6.73691 4.48045 4.10885
lowerneck -32.6831 -10.3889 -29.7716
upperneck -3.58184 -2.64639 16.9212
head 4.3063 0.531635 10.2587
rclavicle -1.59028e-014 4.77083e-015
rhumerus 73.7318 -23.2618 5.16603
rradius 37.6488
rwrist 16.9587
rhand -34.2651 102.857
rfingers 7.12502
rthumb -7.43541 132.706
lclavicle -1.59028e-014 4.77083e-015
lhumerus 46.8259 28.5154 21.6584
lradius 47.238
lwrist 15.1262
lhand -47.6418 113.59
lfingers 7.12502
lthumb -20.3242 -84.6332
rfemur -75.7752 -28.7421 -7.92639
rtibia 69.7378
rfoot -17.4548 -27.8106
rtoes 7.74896
lfemur -40.8079 27.7653 4.23973
ltibia 55.2005
lfoot -19.6888 14.73
ltoes -6.72429
172
root 1.2501 16.8931 -0.895539 318.007 82.1086 -215.376
lowerback -5.06854 5.04574 8.15949
upperback -8.64723 7.96119 8.09072
thorax -6.51556 4.16047 3.95457
lowerneck -33.1905 -10.3704 -29.2561
upperneck -3.41946 -2.67876 16.989
head 4.42973 0.528972 10.2109
rclavicle -2.94201e-013 -9.22361e-014
rhumerus 73.7235 -23.5472 4.89961
rradius 37.111
rwrist 17.3028
rhand -36.9339 104.293
rfingers 7.12502
rthumb -10.0109 134.035
lclavicle -2.94201e-013 -9.22361e-014
lhumerus 47.3786 28.4708 22.0504
lradius 46.7857
lwrist 14.5088
lhand -47.38 113.184
lfingers 7.12502
lthumb -20.0725 -84.2012
rfemur -73.474 -28.268 -8.75099
rtibia 69.2277
rfoot -18.7406 -28.6032
rtoes 9.06751
lfemur -44.2545 27.2355 3.46932
ltibia 53.9412
lfoot -19.9387 15.3614
ltoes -8.78965
173
root 1.29789 16.9264 -1.03038 315.189 83.778 -219.043
lowerback -5.7662 4.81289 7.86551
upperback -8.88074 7.48145 7.60661
thorax -6.31292 3.90113 3.65905
lowerneck -34.5978 -10.7421 -29.0865
upperneck -2.42505 -2.79437 17.3354
head 4.55269 0.543685 10.1422
rclavicle -3.20441e-013 -9.70069e-014
rhumerus 73.9231 -23.9588 4.67027
rradius 36.3061
rwrist 17.5922
rhand -38.3051 104.987
rfingers 7.12502
rthumb -11.3335 134.661
lclavicle -3.20441e-013 -9.70069e-014
lhumerus 48.1076 28.5835 22.5856
lradius 47.0664
lwrist 15.0704
lhand -48.2706 114.523
lfingers 7.12502
lthumb -20.9284 -85.6317
rfemur -71.3618 -27.4497 -8.67658
rtibia 68.7147
rfoot -19.8684 -29.4802
rtoes 10.7242
lfemur -47.4947 26.6366 3.95362
ltibia 52.7521
lfoot -20.0966 16.2711
ltoes -10.4772
